Coordinates
version=1
nRows=18
nColumns=63
inDegrees=yes

Units are S.I. units (second, meters, Newtons, ...)
If the header above contains a line with 'inDegrees', this indicates whether rotational values are in degrees (yes) or radians (no).

endheader
time	pelvis_tilt	pelvis_list	pelvis_rotation	pelvis_tx	pelvis_ty	pelvis_tz	hip_flexion_r	hip_adduction_r	hip_rotation_r	knee_angle_r	knee_angle_r_beta	ankle_angle_r	subtalar_angle_r	mtp_angle_r	hip_flexion_l	hip_adduction_l	hip_rotation_l	knee_angle_l	knee_angle_l_beta	ankle_angle_l	subtalar_angle_l	mtp_angle_l	L5_S1_Flex_Ext	L5_S1_Lat_Bending	L5_S1_axial_rotation	L4_L5_Flex_Ext	L4_L5_Lat_Bending	L4_L5_axial_rotation	L3_L4_Flex_Ext	L3_L4_Lat_Bending	L3_L4_axial_rotation	L2_L3_Flex_Ext	L2_L3_Lat_Bending	L2_L3_axial_rotation	L1_L2_Flex_Ext	L1_L2_Lat_Bending	L1_L2_axial_rotation	L1_T12_Flex_Ext	L1_T12_Lat_Bending	L1_T12_axial_rotation	Abs_r3	Abs_r2	Abs_r1	Abs_t1	Abs_t2	neck_flexion	neck_bending	neck_rotation	arm_flex_r	arm_add_r	arm_rot_r	elbow_flex_r	pro_sup_r	wrist_flex_r	wrist_dev_r	arm_flex_l	arm_add_l	arm_rot_l	elbow_flex_l	pro_sup_l	wrist_flex_l	wrist_dev_l
1.423729	-0.198676	-3.732114	85.883269	0.161307	0.972450	0.523106	1.785246	-0.143280	-5.969917	15.771841	0.275271	26.713152	2.574922	0.000000	2.401961	-1.707314	-0.768058	13.032376	0.227458	28.682181	6.745071	0.000000	-0.034115	-0.412948	1.834318	-0.063356	-0.549221	1.948963	-0.056048	-1.004042	1.948963	-0.038991	-1.004042	1.605028	-0.031680	-0.842084	1.490384	-0.019494	-0.639656	1.375739	-0.243683	-4.671350	10.201927	0.000000	0.000000	10.851523	-1.052987	-28.777741	-6.786398	-36.655986	-1.590811	147.946106	57.143149	8.867738	34.519268	24.545504	-19.060671	30.111556	128.587341	69.612880	5.694730	4.781399
1.440678	-0.291770	-3.876247	85.939169	0.160583	0.972088	0.523794	2.131567	-0.327846	-6.279321	16.113407	0.281232	26.777324	2.665994	0.000000	2.549845	-1.578622	-0.557940	12.879615	0.224792	28.642080	6.675226	0.000000	-0.045144	-0.417624	2.005246	-0.083836	-0.555440	2.130574	-0.074166	-1.015412	2.130574	-0.051595	-1.015412	1.754590	-0.041920	-0.851620	1.629263	-0.025795	-0.646900	1.503935	-0.322456	-4.724250	11.152578	0.000000	0.000000	11.287864	-0.826244	-26.134427	-7.593820	-37.178303	-1.125293	148.093147	59.349539	11.203404	34.398851	25.308635	-17.861426	31.660641	128.673253	69.422122	6.102501	5.292673
1.457627	-0.383509	-4.068375	85.939198	0.159888	0.971737	0.524378	2.533908	-0.503399	-6.493224	16.456390	0.287218	26.828385	2.712897	0.000000	2.730116	-1.454508	-0.427709	12.714864	0.221916	28.606983	6.618148	0.000000	-0.050772	-0.419583	2.161832	-0.094290	-0.558046	2.296946	-0.083414	-1.020175	2.296946	-0.058028	-1.020175	1.891603	-0.047147	-0.855614	1.756488	-0.029011	-0.649935	1.621374	-0.362663	-4.746411	12.023458	0.000000	0.000000	11.668568	-0.630053	-23.451704	-8.304300	-37.695454	-0.737350	148.115364	62.343559	13.549377	33.785801	25.924721	-16.585185	33.019827	128.896461	69.819825	6.206701	5.633859
1.474576	-0.485711	-4.285948	85.851562	0.159292	0.971430	0.524922	2.983428	-0.678384	-6.571968	16.808236	0.293359	26.887447	2.729335	0.000000	2.917345	-1.323035	-0.399244	12.530687	0.218702	28.564307	6.558856	0.000000	-0.054492	-0.419237	2.300269	-0.101197	-0.557586	2.444036	-0.089525	-1.019334	2.444036	-0.062279	-1.019334	2.012736	-0.050601	-0.854909	1.868969	-0.031137	-0.649399	1.725202	-0.389232	-4.742498	12.793408	0.000000	0.000000	11.957446	-0.600940	-20.876329	-8.725856	-38.167606	-0.309591	147.982818	65.922060	15.820853	32.959861	26.421988	-15.266773	34.234067	129.207025	70.829349	6.036209	5.662450
1.491525	-0.586961	-4.515393	85.697010	0.158812	0.971180	0.525441	3.450430	-0.834557	-6.508183	17.138784	0.299128	26.954138	2.703318	0.000000	3.109810	-1.196616	-0.445036	12.350166	0.215551	28.521067	6.488678	0.000000	-0.056690	-0.414793	2.407759	-0.105279	-0.551675	2.558244	-0.093136	-1.008529	2.558244	-0.064791	-1.008529	2.106789	-0.052642	-0.845847	1.956304	-0.032393	-0.642515	1.805820	-0.404931	-4.692226	13.391235	0.000000	0.000000	12.140974	-0.675146	-18.394238	-8.649802	-38.587028	0.422147	147.642380	69.863497	17.573515	32.061147	26.833464	-13.924663	35.377678	129.543793	72.445059	5.589742	5.246800
1.508475	-0.708360	-4.722258	85.494722	0.158537	0.971025	0.525990	3.897445	-0.983472	-6.273712	17.437996	0.304350	27.027208	2.577391	0.000000	3.282435	-1.057104	-0.551689	12.182576	0.212626	28.455945	6.413961	0.000000	-0.061080	-0.410215	2.477248	-0.113431	-0.545586	2.632076	-0.100348	-0.997398	2.632076	-0.069808	-0.997398	2.167592	-0.056719	-0.836511	2.012764	-0.034901	-0.635424	1.857936	-0.436288	-4.640439	13.777711	0.000000	0.000000	12.195161	-0.859519	-16.142061	-7.921840	-38.887151	1.539079	147.012996	75.459718	18.731148	31.161022	27.271475	-12.607786	36.593205	129.851463	74.640522	4.829319	4.306321
1.525424	-0.820745	-4.924787	85.257407	0.158394	0.970937	0.526535	4.326455	-1.105800	-5.951851	17.684114	0.308646	27.100636	2.458131	0.000000	3.445274	-0.930560	-0.690563	12.017636	0.209747	28.371710	6.329977	0.000000	-0.060973	-0.400981	2.505861	-0.113233	-0.533304	2.662478	-0.100173	-0.974944	2.662478	-0.069686	-0.974944	2.192629	-0.056620	-0.817679	2.036012	-0.034840	-0.621119	1.879396	-0.435525	-4.535972	13.936849	0.000000	0.000000	12.111579	-1.137590	-14.167452	-6.419563	-39.075083	3.272030	145.952220	81.458387	19.150836	30.239950	27.634887	-11.218016	37.467942	130.234194	81.847939	5.069354	2.365295
1.542373	-0.927426	-5.094097	84.992641	0.158416	0.970935	0.527098	4.700885	-1.208366	-5.575982	17.869511	0.311882	27.168138	2.370716	0.000000	3.577916	-0.812854	-0.843385	11.871817	0.207202	28.261271	6.215319	0.000000	-0.059277	-0.389525	2.492433	-0.110082	-0.518069	2.648210	-0.097385	-0.947092	2.648210	-0.067747	-0.947092	2.180879	-0.055044	-0.794320	2.025102	-0.033871	-0.603375	1.869325	-0.423406	-4.406389	13.862164	0.000000	0.000000	11.863004	-1.499260	-12.642751	-4.076728	-39.130174	5.929745	144.465384	85.831892	18.733568	28.876525	28.117642	-9.817574	38.526199	130.431476	86.599243	5.625009	1.326927
1.559322	-1.022247	-5.231047	84.713859	0.158566	0.971016	0.527659	5.004196	-1.294338	-5.229932	17.972326	0.313676	27.216133	2.393196	0.000000	3.683304	-0.713247	-1.045919	11.751712	0.205106	28.130917	6.121298	0.000000	-0.055336	-0.376054	2.435906	-0.102765	-0.500152	2.588150	-0.090912	-0.914339	2.588150	-0.063244	-0.914339	2.131418	-0.051385	-0.766850	1.979174	-0.031619	-0.582508	1.826930	-0.395261	-4.254003	13.547779	0.000000	0.000000	11.482249	-1.897943	-11.612897	-0.911784	-39.010784	9.617835	142.607025	87.996802	17.503846	27.039717	28.702920	-8.484255	39.723199	130.398760	88.738765	6.206268	1.190413
1.576271	-1.102043	-5.345530	84.434196	0.158822	0.971181	0.528180	5.236882	-1.362784	-4.951498	17.986596	0.313925	27.233144	2.547796	0.000000	3.765017	-0.633444	-1.263119	11.644445	0.203234	27.973431	6.025006	0.000000	-0.047323	-0.360853	2.344030	-0.087884	-0.479935	2.490532	-0.077747	-0.877379	2.490532	-0.054086	-0.877379	2.051026	-0.043944	-0.735852	1.904524	-0.027041	-0.558962	1.758022	-0.338026	-4.082045	13.036790	0.000000	0.000000	10.994951	-2.296027	-11.054213	2.983106	-38.674001	14.508413	140.505892	84.628218	14.803599	25.298035	29.365251	-7.273446	40.945496	130.023992	88.313791	6.579594	1.925565
1.593220	-1.159705	-5.437439	84.161860	0.159176	0.971459	0.528650	5.394855	-1.405155	-4.746526	17.911375	0.312612	27.203190	2.817913	0.000000	3.823555	-0.587554	-1.540939	11.552074	0.201622	27.800872	5.997441	0.000000	-0.035425	-0.344287	2.229404	-0.065788	-0.457901	2.368741	-0.058200	-0.837098	2.368741	-0.040487	-0.837098	1.950728	-0.032896	-0.702069	1.811391	-0.020242	-0.533300	1.672053	-0.253039	-3.894639	12.399275	0.000000	0.000000	10.459979	-2.575297	-10.828383	7.404734	-38.034106	20.077704	138.150015	81.159303	11.831323	23.324572	30.071949	-6.221257	42.023287	129.209331	85.688638	6.491918	3.401597
1.610169	-1.202354	-5.506917	83.898186	0.159633	0.971851	0.529075	5.477188	-1.430201	-4.622689	17.746185	0.309729	27.137146	3.211917	0.000000	3.861569	-0.570034	-1.890052	11.476192	0.200297	27.612910	6.045351	0.000000	-0.021166	-0.327192	2.097958	-0.039308	-0.435166	2.229080	-0.034774	-0.795535	2.229080	-0.024191	-0.795535	1.835713	-0.019655	-0.667210	1.704591	-0.012094	-0.506821	1.573469	-0.151189	-3.701263	11.668213	0.000000	0.000000	9.953069	-2.657194	-10.708491	12.229518	-37.093786	26.210230	135.700605	77.627942	8.713290	21.346168	30.746556	-5.470948	42.853635	128.010554	81.003852	5.595513	5.510938
1.627119	-1.228463	-5.555603	83.681389	0.160112	0.972327	0.529462	5.489821	-1.433309	-4.564202	17.504041	0.305503	27.050553	3.658864	0.000000	3.887401	-0.580811	-2.283542	11.420816	0.199331	27.422058	6.178848	0.000000	-0.006919	-0.308827	1.946730	-0.012849	-0.410740	2.068401	-0.011367	-0.750882	2.068401	-0.007908	-0.750882	1.703389	-0.006425	-0.629760	1.581718	-0.003954	-0.478373	1.460048	-0.049422	-3.493514	10.827129	0.000000	0.000000	9.491843	-2.643711	-10.571519	17.317713	-35.893812	32.742828	133.333847	74.033664	5.489577	19.632082	31.390708	-5.233221	43.630857	126.471914	73.599772	4.161184	8.150468
1.644068	-1.236793	-5.585026	83.485294	0.160627	0.972908	0.529821	5.440527	-1.419063	-4.576767	17.191210	0.300043	26.949948	4.200168	0.000000	3.894903	-0.620355	-2.728403	11.376593	0.198559	27.221843	6.380226	0.000000	0.006312	-0.289360	1.797629	0.011721	-0.384848	1.909981	0.010370	-0.703549	1.909981	0.007214	-0.703549	1.572926	0.005861	-0.590062	1.460574	0.003607	-0.448218	1.348222	0.045084	-3.273293	9.997875	0.000000	0.000000	9.137259	-2.428565	-10.261150	22.448461	-34.532157	39.265172	131.153858	70.688280	2.772965	18.290746	32.212894	-5.612082	44.784442	124.126883	62.098740	3.169413	11.202312
1.661017	-1.215821	-5.611107	83.316992	0.161119	0.973513	0.530112	5.348794	-1.372632	-4.625788	16.822964	0.293616	26.843774	4.766130	0.000000	3.901217	-0.696124	-3.186406	11.351096	0.198114	27.027885	6.613952	0.000000	0.018063	-0.268571	1.650482	0.033545	-0.357200	1.753637	0.029676	-0.653004	1.753637	0.020644	-0.653004	1.444171	0.016773	-0.547670	1.341016	0.010321	-0.416017	1.237861	0.129022	-3.038130	9.179484	0.000000	0.000000	8.962630	-2.109175	-9.823266	27.481188	-33.088788	45.508442	129.274347	67.832115	0.601353	17.289867	32.793201	-6.330741	45.343548	121.878009	52.013844	3.532970	14.587468
1.677966	-1.185627	-5.648342	83.207040	0.161591	0.974051	0.530276	5.229976	-1.313652	-4.734485	16.415172	0.286499	26.748899	5.329098	0.000000	3.921326	-0.785952	-3.596364	11.339216	0.197907	26.845239	6.859527	0.000000	0.029622	-0.251178	1.502600	0.055010	-0.334066	1.596513	0.048665	-0.610714	1.596513	0.033855	-0.610714	1.314775	0.027507	-0.512202	1.220863	0.016926	-0.389074	1.126950	0.211585	-2.841373	8.357012	0.000000	0.000000	9.026107	-1.695188	-9.314184	32.285047	-31.643442	51.203789	127.737778	65.698888	-0.986876	16.495936	33.390257	-7.387569	45.641190	120.048494	43.675578	5.255152	18.271305
1.694915	-1.154963	-5.698195	83.156494	0.162041	0.974473	0.530289	5.090700	-1.253071	-4.901887	15.986980	0.279025	26.663711	5.872474	0.000000	3.954186	-0.877380	-3.926083	11.334308	0.197821	26.679504	7.087505	0.000000	0.040845	-0.238747	1.360335	0.075854	-0.317534	1.445356	0.067105	-0.580490	1.445356	0.046682	-0.580490	1.190293	0.037929	-0.486853	1.105272	0.023339	-0.369819	1.020251	0.291753	-2.700756	7.565776	0.000000	0.000000	9.348630	-1.212525	-8.764498	36.765332	-30.317724	56.154118	126.542880	64.438391	-2.080704	15.813611	34.199103	-8.667397	45.912747	118.801074	37.142646	8.027325	22.215811
1.711864	-1.132354	-5.755037	83.161589	0.162472	0.974779	0.530152	4.931479	-1.201797	-5.127094	15.555691	0.271498	26.576444	6.368583	0.000000	3.991769	-0.958688	-4.161190	11.328445	0.197719	26.537171	7.281713	0.000000	0.050989	-0.232237	1.234266	0.094692	-0.308875	1.311408	0.083770	-0.564661	1.311408	0.058275	-0.564661	1.079983	0.047348	-0.473577	1.002841	0.029135	-0.359735	0.925700	0.364210	-2.627109	6.864620	0.000000	0.000000	9.902451	-0.698465	-8.216439	40.772486	-29.247727	60.147819	125.644151	64.078196	-2.799198	15.198712	35.299936	-10.050095	46.256537	118.105960	32.463203	11.424732	25.997797
